<svg xmlns="http://www.w3.org/2000/svg" width="56" height="56" fill="none"><rect width="56" height="56" fill="#111" rx="8"/><g clip-path="url(#a)"><mask id="b" width="32" height="33" x="12" y="12" maskUnits="userSpaceOnUse" style="mask-type:luminance"><path fill="#fff" d="M44 12H12v32h32z"/></mask><g mask="url(#b)"><path fill="url(#c)" d="M43.397 26.575 29.425 12.604a2.06 2.06 0 0 0-2.914 0l-2.901 2.901 3.68 3.68a2.446 2.446 0 0 1 3.1 3.12l3.546 3.547a2.451 2.451 0 1 1-.935 4.05 2.45 2.45 0 0 1-.534-2.667l-3.307-3.308v8.705a2.452 2.452 0 1 1-2.016-.071v-8.786a2.45 2.45 0 0 1-1.331-3.216l-3.63-3.628-9.58 9.579a2.06 2.06 0 0 0 0 2.915l13.973 13.971a2.06 2.06 0 0 0 2.914 0L43.396 29.49a2.06 2.06 0 0 0 0-2.915Z"/></g></g><defs><linearGradient id="c" x1="11.376" x2="39.652" y1="13.034" y2="33.125" gradientUnits="userSpaceOnUse"><stop stop-color="#FCFB65"/><stop offset="1" stop-color="#63FAEE"/></linearGradient><clipPath id="a"><path fill="#fff" d="M12 12h32v32H12z"/></clipPath></defs></svg>